<mxfile host="65bd71144e">
    <diagram id="iSy7V3vojYhYFgY1wen1" name="第 1 页">
        <mxGraphModel dx="647" dy="604" grid="1" gridSize="10" guides="1" tooltips="1" connect="1" arrows="1" fold="1" page="1" pageScale="1" pageWidth="827" pageHeight="1169" background="#ffffff" math="0" shadow="0">
            <root>
                <mxCell id="0"/>
                <mxCell id="1" parent="0"/>
                <mxCell id="2" value="..." style="rounded=0;whiteSpace=wrap;html=1;fontSize=14;fillColor=none;fontColor=#000000;strokeColor=#000000;" parent="1" vertex="1">
                    <mxGeometry x="40" y="100" width="70" height="130" as="geometry"/>
                </mxCell>
                <mxCell id="4" value="操作：绘制矩形&lt;br style=&quot;font-size: 14px;&quot;&gt;坐标：100,50&lt;br style=&quot;font-size: 14px;&quot;&gt;样式: ..." style="rounded=0;whiteSpace=wrap;html=1;fontSize=14;fillColor=none;fontColor=#000000;strokeColor=#000000;" parent="1" vertex="1">
                    <mxGeometry x="110" y="100" width="110" height="130" as="geometry"/>
                </mxCell>
                <mxCell id="5" value="操作：绘制矩形&lt;br style=&quot;font-size: 14px;&quot;&gt;坐标：100,50&lt;br style=&quot;font-size: 14px;&quot;&gt;样式: ..." style="rounded=0;whiteSpace=wrap;html=1;fontSize=14;fillColor=none;fontColor=#000000;strokeColor=#000000;" parent="1" vertex="1">
                    <mxGeometry x="220" y="100" width="110" height="130" as="geometry"/>
                </mxCell>
                <mxCell id="6" value="操作：绘制矩形&lt;br style=&quot;font-size: 14px;&quot;&gt;坐标：100,50&lt;br style=&quot;font-size: 14px;&quot;&gt;样式: ..." style="rounded=0;whiteSpace=wrap;html=1;fontSize=14;fillColor=none;fontColor=#000000;strokeColor=#000000;" parent="1" vertex="1">
                    <mxGeometry x="330" y="100" width="110" height="130" as="geometry"/>
                </mxCell>
                <mxCell id="7" value="..." style="rounded=0;whiteSpace=wrap;html=1;fontSize=14;fillColor=none;fontColor=#000000;strokeColor=#000000;" parent="1" vertex="1">
                    <mxGeometry x="440" y="100" width="70" height="130" as="geometry"/>
                </mxCell>
                <mxCell id="8" value="绘制列表" style="text;html=1;fillColor=none;align=center;verticalAlign=middle;whiteSpace=wrap;rounded=0;fontSize=18;fontColor=#000000;strokeColor=#000000;" parent="1" vertex="1">
                    <mxGeometry x="240" y="60" width="100" height="30" as="geometry"/>
                </mxCell>
                <mxCell id="9" value="" style="rounded=1;whiteSpace=wrap;html=1;fontSize=14;strokeWidth=10;fillColor=#b1ddf0;strokeColor=#000000;" parent="1" vertex="1">
                    <mxGeometry x="325" y="270" width="135" height="80" as="geometry"/>
                </mxCell>
                <mxCell id="11" value="" style="endArrow=none;html=1;fontSize=14;strokeWidth=10;fontColor=#000000;fillColor=none;strokeColor=#000000;" parent="1" edge="1">
                    <mxGeometry width="50" height="50" relative="1" as="geometry">
                        <mxPoint x="307.5" y="350" as="sourcePoint"/>
                        <mxPoint x="477.5" y="350" as="targetPoint"/>
                    </mxGeometry>
                </mxCell>
                <mxCell id="12" value="" style="rounded=0;whiteSpace=wrap;html=1;fontSize=14;fillColor=none;fontColor=#000000;strokeColor=#000000;" parent="1" vertex="1">
                    <mxGeometry x="343" y="290" width="70" height="40" as="geometry"/>
                </mxCell>
                <mxCell id="13" value="" style="edgeStyle=segmentEdgeStyle;endArrow=classic;html=1;curved=0;rounded=0;endSize=8;startSize=8;strokeWidth=4;fontSize=18;entryX=0;entryY=0.5;entryDx=0;entryDy=0;exitX=0.5;exitY=1;exitDx=0;exitDy=0;fontColor=#000000;fillColor=none;strokeColor=#000000;" parent="1" source="4" target="9" edge="1">
                    <mxGeometry width="50" height="50" relative="1" as="geometry">
                        <mxPoint x="140" y="260" as="sourcePoint"/>
                        <mxPoint x="190" y="210" as="targetPoint"/>
                        <Array as="points">
                            <mxPoint x="165" y="310"/>
                        </Array>
                    </mxGeometry>
                </mxCell>
                <mxCell id="14" value="执行绘制操作" style="text;html=1;fillColor=none;align=center;verticalAlign=middle;whiteSpace=wrap;rounded=0;strokeWidth=10;fontSize=18;fontColor=#000000;" parent="1" vertex="1">
                    <mxGeometry x="160" y="320" width="140" height="40" as="geometry"/>
                </mxCell>
            </root>
        </mxGraphModel>
    </diagram>
</mxfile>